<?xml version="1.0" standalone="no"?>
<!DOCTYPE svg PUBLIC "-//W3C//DTD SVG 20010904//EN"
 "http://www.w3.org/TR/2001/REC-SVG-20010904/DTD/svg10.dtd">
<svg version="1.0" xmlns="http://www.w3.org/2000/svg"
 width="499.000000pt" height="499.000000pt" viewBox="0 0 499.000000 499.000000"
 preserveAspectRatio="xMidYMid meet">

<g transform="translate(0.000000,499.000000) scale(0.100000,-0.100000)"
fill="#000000" stroke="none">
<path d="M2320 4979 c-143 -11 -399 -54 -500 -84 -522 -157 -948 -443 -1290
-870 -56 -70 -173 -245 -204 -305 -13 -25 -42 -81 -65 -125 -46 -90 -126 -296
-164 -425 -34 -113 -74 -363 -87 -534 -30 -398 69 -879 257 -1251 159 -316
361 -570 642 -808 25 -20 43 -39 40 -41 -2 -2 -71 -12 -154 -21 -82 -9 -168
-20 -189 -24 l-39 -6 98 -58 c54 -31 101 -57 106 -57 18 0 7 -20 -72 -130 -44
-62 -78 -114 -75 -117 5 -5 203 18 615 73 l43 6 -6 59 c-4 32 -4 59 0 59 4 0
30 -14 59 -30 51 -29 99 -50 285 -126 98 -40 351 -107 490 -129 364 -57 681
-37 1063 66 101 27 187 58 343 123 51 21 144 70 256 133 17 9 31 8 67 -6 46
-17 46 -17 49 -69 2 -30 8 -55 15 -57 19 -6 628 -28 633 -23 2 3 -29 50 -71
106 -41 55 -75 105 -75 110 0 5 35 32 78 60 42 29 88 60 101 71 l24 19 -39 5
c-21 4 -88 9 -149 12 -60 3 -134 8 -162 12 -52 5 -53 6 -53 38 0 28 12 45 66
102 149 153 304 348 368 466 13 23 44 79 70 125 26 46 55 104 65 130 10 26 36
90 58 142 39 93 88 263 117 405 39 188 41 212 41 495 0 255 -3 297 -23 405
-89 468 -241 804 -524 1159 -124 155 -330 347 -496 464 -26 18 -58 40 -71 50
-186 134 -618 315 -836 351 -33 6 -101 17 -150 25 -97 17 -334 37 -400 35 -22
-1 -92 -6 -155 -10z m470 -44 c173 -17 287 -43 485 -109 160 -53 384 -156 503
-231 81 -51 305 -216 357 -264 61 -55 234 -235 235 -243 0 -4 23 -33 50 -64
49 -56 180 -248 212 -309 8 -16 34 -65 58 -108 75 -139 169 -401 204 -577 45
-218 57 -334 57 -535 0 -329 -44 -563 -172 -915 -32 -87 -148 -313 -207 -401
-26 -40 -62 -95 -81 -123 -18 -28 -48 -67 -66 -86 -17 -19 -39 -46 -48 -60
-10 -13 -57 -66 -107 -116 l-89 -92 -63 18 c-35 10 -119 34 -188 54 -176 50
-272 72 -450 102 -85 14 -156 28 -158 29 -4 3 133 85 142 85 3 0 35 21 71 48
36 26 80 57 98 70 123 87 306 287 410 445 141 216 229 436 284 712 25 128 26
491 0 620 -71 358 -222 672 -442 918 -80 89 -209 211 -244 232 -9 6 -50 35
-91 66 -41 30 -93 64 -115 76 -22 11 -78 40 -125 65 -47 24 -101 49 -120 55
-19 6 -75 26 -125 43 -49 17 -144 43 -210 57 -110 24 -139 26 -360 26 -280 0
-353 -12 -596 -93 -141 -47 -182 -66 -349 -159 -419 -235 -766 -711 -864
-1189 -59 -285 -61 -512 -7 -779 43 -213 136 -454 230 -591 23 -34 41 -64 41
-68 0 -18 176 -226 258 -305 143 -137 260 -220 457 -325 69 -37 76 -43 55 -48
-161 -32 -453 -116 -628 -178 -88 -32 -111 -44 -108 -57 22 -79 16 -99 -20
-60 -10 12 -35 32 -54 45 -48 31 -213 193 -286 280 -325 389 -529 865 -574
1339 -23 245 -8 545 37 760 25 119 86 324 125 420 34 84 158 327 182 360 13
16 31 45 40 64 34 65 155 218 275 346 122 130 357 327 446 372 17 9 44 26 60
39 33 24 276 148 360 182 175 71 463 144 635 160 149 14 432 13 580 -3z m-119
-546 c495 -49 956 -304 1260 -696 226 -290 347 -603 380 -984 24 -273 -28
-594 -138 -844 -54 -123 -90 -192 -134 -256 -21 -32 -39 -61 -39 -64 0 -4 -30
-43 -66 -88 -152 -189 -369 -385 -411 -371 -13 4 -14 3 -5 -3 14 -10 -42 -55
-113 -90 -22 -11 -66 -34 -97 -50 -49 -25 -65 -29 -103 -23 -25 4 -48 10 -51
13 -4 4 5 30 18 59 44 91 58 138 53 166 -11 60 14 83 153 139 7 3 12 -3 12
-15 0 -12 3 -23 8 -26 14 -9 108 22 207 69 55 26 117 50 137 52 64 9 33 19
-48 17 -151 -6 -400 -53 -554 -106 -47 -16 -100 -33 -118 -38 -87 -22 -206
-140 -271 -268 -8 -15 -21 -22 -41 -22 -35 0 -35 0 -15 47 8 19 15 43 15 53 0
9 29 45 65 79 36 35 70 72 75 82 6 10 16 18 22 16 7 -1 14 6 16 15 2 13 -1 16
-12 12 -11 -4 -16 0 -16 14 0 13 -19 34 -52 58 -43 32 -59 38 -95 36 -40 -1
-42 0 -31 18 14 21 57 43 79 39 15 -3 42 8 139 54 87 42 117 63 210 147 51 46
88 89 105 123 l27 52 -7 -39 c-10 -61 -53 -134 -117 -199 -32 -33 -57 -61 -55
-64 20 -19 162 104 182 157 7 19 19 49 25 66 15 36 6 84 -15 84 -26 0 -16 37
15 62 22 17 32 36 39 72 5 26 13 52 19 58 7 7 7 16 -1 29 -9 15 -9 24 1 39 6
11 12 27 12 35 0 8 3 15 8 15 4 0 8 12 9 27 2 36 35 133 46 133 18 0 -7 76
-31 96 -22 18 -24 24 -14 37 10 12 11 21 2 36 -9 18 -14 19 -31 10 -12 -6 -18
-17 -15 -25 3 -8 1 -14 -5 -14 -6 0 -7 -5 -4 -10 3 -6 -5 -14 -20 -20 -14 -5
-30 -21 -37 -35 -6 -14 -17 -26 -25 -26 -7 -1 -19 -2 -25 -3 -7 -1 -19 -9 -26
-19 -11 -14 -21 -16 -50 -11 -20 4 -39 10 -42 14 -5 7 -47 16 -135 30 -68 10
-145 32 -145 42 0 4 6 8 14 8 18 0 17 37 0 44 -7 3 -15 -6 -18 -19 -5 -21 -33
-41 -43 -31 -3 2 0 13 6 24 8 16 7 21 -5 26 -25 10 -59 7 -72 -6 -9 -9 -17 -9
-34 -1 -13 7 -39 14 -58 18 -59 10 -78 52 -79 177 0 127 -9 202 -29 248 -21
50 -60 79 -145 106 -80 25 -133 30 -255 24 -30 -1 -58 3 -67 10 -24 20 -18 47
15 60 35 14 41 35 8 25 -119 -36 -390 -264 -483 -407 -27 -42 -53 -77 -57 -77
-24 -2 38 143 69 162 7 4 13 14 13 22 0 7 11 22 23 32 29 22 43 75 18 65 -21
-8 -121 -109 -121 -122 0 -6 -5 -10 -11 -10 -6 0 -9 6 -6 14 3 8 2 30 -4 48
-8 28 -6 36 11 50 23 19 26 38 6 38 -20 0 -30 -16 -60 -95 -18 -50 -26 -90
-26 -135 0 -48 -3 -61 -11 -53 -7 7 -12 34 -12 62 0 28 -4 51 -9 51 -5 0 -6 5
-3 10 4 6 -5 10 -19 10 -14 0 -26 5 -26 11 0 6 9 9 20 6 11 -3 23 -1 26 4 3 5
-1 9 -9 9 -22 0 -30 30 -9 31 10 0 12 3 5 6 -20 8 -15 23 7 23 11 0 20 5 20
11 0 6 -6 9 -14 6 -8 -3 -20 1 -26 9 -10 11 -10 14 1 14 11 0 11 2 -1 10 -27
18 -38 10 -51 -35 -7 -25 -17 -45 -21 -45 -4 0 -8 -9 -8 -20 0 -21 -20 -25
-55 -10 -17 7 -15 9 11 9 27 1 32 5 38 33 3 17 4 33 1 36 -3 3 -5 0 -5 -8 0
-10 -3 -10 -15 0 -8 7 -25 10 -40 6 -24 -6 -25 -5 -25 48 0 30 4 57 10 61 5 3
7 12 4 19 -12 32 46 177 105 264 34 50 44 58 68 57 18 -2 20 -1 6 2 -13 2 -23
6 -23 9 0 21 140 202 198 255 103 95 309 232 407 271 27 11 55 28 63 39 7 10
20 19 28 19 16 0 18 12 5 26 -5 5 -6 27 -2 49 9 50 5 65 -20 65 -24 0 -25 15
-1 25 13 6 8 10 -22 15 -59 11 -74 4 -71 -33 2 -36 -19 -67 -46 -67 -10 0 -23
-8 -28 -17 -6 -10 -11 -13 -11 -6 0 15 -55 8 -85 -11 -12 -8 -41 -20 -65 -26
-25 -7 -49 -18 -55 -25 -5 -8 -26 -17 -45 -20 -31 -6 -36 -4 -37 14 -1 12 4
21 13 21 8 0 14 7 14 17 0 9 3 13 7 10 7 -8 33 11 33 24 0 4 -12 14 -27 22
-16 7 -27 18 -26 24 4 22 -32 1 -45 -25 -17 -37 -15 -42 13 -42 36 0 31 -17
-7 -24 -18 -3 -39 -7 -45 -9 -15 -4 -53 -43 -53 -54 0 -10 -37 -43 -49 -43 -4
0 -16 -9 -26 -20 -10 -11 -24 -20 -30 -20 -7 0 -30 -16 -51 -35 -40 -36 -54
-42 -54 -25 0 6 -8 10 -17 10 -13 0 -5 13 27 44 25 24 44 48 42 55 -2 6 1 11
6 11 6 0 23 13 38 29 15 17 31 28 36 25 4 -3 8 2 8 10 0 15 -21 21 -62 18 -27
-3 -22 9 25 52 97 89 398 266 517 305 349 112 545 138 821 110z m-634 -365
c-3 -3 -12 -4 -19 -1 -8 3 -5 6 6 6 11 1 17 -2 13 -5z m-467 -34 c0 -5 -4 -10
-10 -10 -5 0 -10 5 -10 10 0 6 5 10 10 10 6 0 10 -4 10 -10z m-290 -95 c0 -9
-11 -20 -25 -25 -14 -5 -25 -12 -25 -15 0 -4 5 -3 10 0 6 3 10 1 10 -4 0 -10
-14 -15 -34 -12 -5 1 -6 -12 -3 -29 5 -21 3 -30 -7 -30 -8 0 -13 -13 -14 -32
-2 -49 8 -88 23 -88 7 0 15 -13 17 -30 3 -22 -2 -36 -19 -52 -13 -12 -23 -30
-23 -41 0 -13 -5 -17 -15 -13 -10 3 -15 -1 -15 -14 0 -10 -5 -22 -10 -25 -8
-5 -7 -11 1 -21 10 -12 8 -18 -7 -29 -17 -13 -17 -14 -2 -15 10 0 23 9 30 20
9 14 23 20 48 20 33 -1 34 -2 16 -15 -14 -11 -16 -15 -5 -15 9 0 10 -3 3 -8
-6 -4 -19 -22 -28 -39 -9 -18 -23 -33 -31 -33 -8 0 -15 -7 -15 -16 0 -8 -5
-12 -10 -9 -6 3 -13 -1 -16 -9 -3 -9 -10 -16 -15 -16 -5 0 -18 -9 -29 -20 -11
-11 -29 -20 -39 -20 -14 0 -18 5 -14 20 3 11 8 20 12 20 11 1 60 48 63 61 2 8
-12 13 -39 15 -24 1 -43 -2 -43 -7 0 -5 -8 -22 -17 -36 -10 -15 -18 -43 -18
-63 0 -33 2 -36 24 -32 16 3 22 1 17 -6 -3 -6 0 -14 7 -19 8 -4 17 -25 20 -45
5 -35 4 -38 -19 -38 -13 0 -24 -4 -24 -9 0 -5 -13 -12 -30 -16 -21 -5 -30 -13
-31 -28 -4 -53 -2 -122 2 -120 2 0 16 7 32 14 31 14 32 13 41 -21 5 -17 4 -21
-2 -11 -8 11 -12 10 -21 -6 -12 -23 -6 -33 21 -33 26 0 22 -18 -6 -31 -27 -13
-36 -35 -36 -94 0 -39 1 -40 33 -39 19 1 39 4 45 8 8 5 10 2 6 -8 -4 -10 1
-19 12 -23 11 -4 28 -15 38 -25 29 -26 44 -22 55 15 5 17 10 24 10 15 1 -10
10 -28 22 -40 67 -75 89 -105 89 -123 0 -11 16 -37 36 -58 35 -36 36 -38 19
-57 -13 -15 -22 -17 -36 -9 -20 10 -27 49 -9 49 6 0 10 5 10 11 0 6 -9 8 -20
4 -15 -5 -18 -3 -14 9 5 12 -1 16 -24 16 -25 0 -29 -3 -25 -20 7 -25 -12 -27
-22 -2 -6 16 -7 16 -17 -2 -8 -15 -7 -22 6 -32 16 -11 16 -13 -1 -23 -14 -8
-15 -13 -5 -19 16 -11 5 -42 -14 -42 -8 0 -14 5 -14 10 0 6 -8 10 -18 10 -15
0 -19 -9 -20 -54 -1 -39 3 -56 13 -60 17 -6 20 -36 4 -36 -8 0 -7 -5 1 -15 17
-21 5 -31 -16 -14 -16 13 -17 11 -11 -16 3 -16 4 -24 1 -17 -9 20 -45 14 -51
-8 -5 -20 -23 -28 -23 -11 0 5 -7 12 -16 15 -20 8 -86 -3 -79 -13 6 -11 -17
-85 -29 -93 -6 -4 -3 -14 8 -27 14 -16 22 -18 36 -9 15 9 25 6 58 -20 29 -23
42 -29 46 -20 4 7 4 3 2 -9 -4 -20 0 -23 32 -23 37 0 40 -7 6 -13 -10 -1 -25
-6 -32 -11 -7 -4 -18 -3 -25 2 -18 14 -79 12 -67 -3 8 -9 4 -11 -15 -7 -27 5
-36 -15 -11 -24 8 -3 16 -14 19 -25 3 -10 17 -23 31 -29 30 -11 32 -21 10 -55
-10 -16 -26 -25 -43 -25 -21 -1 -23 -3 -10 -10 11 -6 14 -19 11 -40 -3 -24 -9
-30 -28 -30 -13 0 -28 9 -34 20 -6 11 -17 20 -24 20 -24 0 -44 34 -89 150 -96
249 -129 423 -129 685 0 248 36 454 112 635 17 41 36 91 42 110 13 46 120 230
172 298 23 30 55 73 72 95 44 59 179 197 193 197 6 0 11 -7 11 -15z m-165
-706 c1 -15 -4 -19 -19 -17 -26 4 -33 35 -9 40 23 5 26 2 28 -23z m-55 -219
c-1 -12 -4 -11 -15 4 -8 10 -12 23 -8 29 7 11 23 -12 23 -33z m1189 -86 c2 -2
-22 -4 -55 -4 -37 0 -54 3 -45 9 12 8 90 4 100 -5z m-68 -24 c14 0 34 -7 45
-15 17 -13 14 -14 -36 -8 -30 3 -58 11 -61 16 -4 5 -16 7 -28 4 -12 -3 -24 -1
-27 5 -4 7 8 8 37 4 24 -3 56 -6 70 -6z m149 -55 c14 -8 19 -14 10 -14 -8 0
-26 6 -40 14 -14 8 -19 14 -10 14 8 0 26 -6 40 -14z m-67 -23 c38 -9 69 -22
69 -27 0 -6 13 -15 29 -22 22 -9 30 -9 39 2 7 8 9 19 5 25 -4 6 9 10 37 10
l43 -1 -24 -19 c-23 -20 -23 -20 -2 -20 27 0 27 -11 -3 -39 -15 -14 -26 -19
-31 -12 -3 6 -15 11 -25 11 -10 0 -21 6 -23 13 -3 6 -6 -3 -6 -20 -1 -26 3
-33 18 -33 34 0 51 -12 51 -36 0 -15 5 -22 13 -18 8 3 13 -5 15 -21 1 -14 -2
-26 -6 -26 -8 -2 -32 -5 -85 -13 -24 -4 -36 -2 -32 4 3 5 1 10 -4 10 -11 0
-15 -13 -12 -38 1 -6 -10 -17 -25 -22 -18 -7 -24 -15 -20 -26 3 -9 6 -24 6
-35 0 -11 8 -26 19 -35 39 -34 8 -63 -97 -90 -65 -17 -62 -17 -62 0 0 8 14 26
31 40 20 17 29 32 25 42 -4 10 0 15 12 13 58 -5 74 7 52 41 -9 13 -12 13 -25
-4 -8 -10 -26 -18 -40 -18 -19 0 -25 -5 -21 -15 4 -8 1 -11 -5 -7 -6 3 -28 -8
-50 -25 -21 -18 -44 -29 -49 -26 -6 3 -10 -5 -10 -19 0 -31 -25 -35 -40 -7 -8
15 -7 22 4 28 21 12 6 31 -26 35 -15 2 -44 18 -64 36 -20 18 -42 32 -50 32 -8
0 -14 5 -14 10 0 6 -6 10 -13 10 -7 0 -28 15 -46 34 -32 33 -33 35 -17 57 21
30 21 79 1 79 -23 0 -8 79 19 102 15 13 17 17 6 18 -10 0 -8 5 7 15 19 13 26
13 65 0 23 -9 61 -24 84 -35 42 -19 92 -25 177 -22 49 2 67 22 20 22 -23 1
-25 2 -11 10 10 6 14 18 11 30 -6 24 -6 24 80 2z m-203 -12 c19 -15 21 -20 8
-20 -9 0 -29 5 -45 11 -22 8 -24 12 -13 19 20 13 21 13 50 -10z m434 -96 c9
-24 -4 -64 -22 -64 -8 0 -13 3 -9 6 3 3 2 16 -3 29 -5 14 -5 26 3 34 15 15 24
14 31 -5z m-64 -174 c0 -5 -2 -10 -4 -10 -3 0 -8 5 -11 10 -3 6 -1 10 4 10 6
0 11 -4 11 -10z m-45 -20 c4 -6 -5 -10 -20 -10 -15 0 -24 4 -20 10 3 6 12 10
20 10 8 0 17 -4 20 -10z m22 -31 c-14 -8 -22 -8 -30 0 -8 8 -3 11 19 11 25 -1
27 -2 11 -11z m70 5 c-3 -3 -12 -4 -19 -1 -8 3 -5 6 6 6 11 1 17 -2 13 -5z
m-1017 -110 c0 -8 -7 -22 -15 -30 -22 -22 -18 -48 8 -59 15 -7 25 -23 31 -53
5 -23 6 -46 2 -50 -8 -7 -29 23 -32 45 -1 6 -10 22 -19 35 -17 23 -17 23 -13
-15 3 -23 0 -36 -6 -34 -6 2 -12 28 -14 58 -2 44 1 60 18 78 11 13 20 28 20
33 0 4 5 8 10 8 6 0 10 -7 10 -16z m-270 -114 c0 -5 -4 -10 -10 -10 -5 0 -10
5 -10 10 0 6 5 10 10 10 6 0 10 -4 10 -10z m1457 -76 c-3 -3 -12 -4 -19 -1 -8
3 -5 6 6 6 11 1 17 -2 13 -5z m145 -18 c13 -19 9 -21 -57 -24 -51 -2 -65 1
-65 12 0 8 6 16 13 19 23 9 102 3 109 -7z m-1654 -5 c10 -6 7 -10 -12 -13 -15
-3 -31 0 -37 8 -9 11 -7 14 12 14 13 0 30 -4 37 -9z m402 -5 c0 -22 -16 -28
-29 -12 -9 11 -9 15 1 19 22 9 28 8 28 -7z m1073 -2 c15 -9 12 -11 -20 -12
-21 -1 -67 -4 -103 -8 -68 -7 -74 4 -12 21 45 13 111 12 135 -1z m-1062 -60
c12 -15 11 -16 -11 -9 -35 10 -49 25 -23 25 11 0 27 -7 34 -16z m19 -74 c0
-11 -9 -29 -20 -40 -11 -11 -20 -23 -20 -26 0 -4 -8 -13 -17 -21 -10 -8 -12
-12 -5 -8 9 4 12 -7 12 -42 0 -53 21 -93 48 -93 9 0 22 -10 28 -23 39 -78 49
-95 72 -119 14 -15 22 -33 19 -42 -4 -11 -1 -13 11 -9 9 3 14 3 10 -2 -7 -8
31 -36 94 -69 20 -11 35 -23 32 -28 -3 -4 2 -5 10 -2 9 3 16 1 16 -5 0 -6 6
-11 14 -11 8 0 36 -17 63 -38 61 -47 99 -72 113 -72 6 0 32 -16 59 -35 27 -19
65 -41 83 -49 39 -17 119 -86 100 -86 -7 0 -28 11 -45 24 -36 27 -162 86 -184
86 -9 0 -33 14 -55 31 -68 55 -155 72 -373 74 -190 2 -394 -13 -430 -32 -27
-14 -43 -7 -87 35 -36 34 -36 36 -22 63 19 37 17 52 -2 16 l-15 -28 -39 43
c-42 47 -106 158 -91 158 5 0 11 9 14 20 3 11 13 20 22 20 11 0 15 5 11 16 -4
12 -1 14 14 9 11 -4 20 -2 20 4 0 5 14 9 30 9 40 -1 38 -9 -9 -38 -31 -20 -36
-26 -23 -31 14 -6 11 -10 -13 -20 -36 -17 -43 -44 -16 -59 25 -13 77 -2 62 13
-16 16 36 60 64 55 17 -4 26 3 41 31 24 48 24 47 34 31 8 -12 16 -8 47 21 144
134 185 169 193 164 6 -4 10 -1 10 5 0 13 99 120 111 120 5 0 9 -9 9 -20z
m-532 -98 c3 -9 -2 -13 -14 -10 -9 1 -19 9 -22 16 -3 9 2 13 14 10 9 -1 19 -9
22 -16z m725 -201 c28 -29 175 -105 225 -117 15 -4 34 -13 42 -20 8 -7 20 -13
25 -14 6 -2 21 -7 35 -12 14 -6 38 -10 55 -10 16 1 35 -4 41 -9 7 -5 16 -9 20
-8 5 1 22 -3 37 -9 16 -7 32 -12 36 -12 4 0 23 -15 43 -32 57 -51 66 -58 80
-58 7 -1 -3 -8 -22 -16 -24 -10 -36 -12 -38 -4 -2 6 -18 0 -37 -15 -19 -14
-37 -25 -40 -25 -18 0 -32 -27 -23 -44 5 -10 7 -20 4 -23 -8 -8 -121 51 -166
86 -19 15 -51 36 -70 47 -19 10 -44 26 -55 35 -11 9 -46 30 -78 48 -78 43
-117 84 -117 121 0 17 -4 30 -10 30 -11 0 -25 25 -34 63 -9 36 10 35 47 -2z
m857 -271 c0 -12 -28 -25 -36 -17 -9 9 6 27 22 27 8 0 14 -5 14 -10z m116
-125 c36 -51 36 -56 -8 -116 -19 -25 -20 -26 -71 -12 -66 17 -109 13 -52 -5
22 -8 57 -20 77 -29 36 -15 36 -16 21 -39 -8 -13 -21 -24 -29 -24 -7 0 -21
-14 -29 -31 -16 -30 -17 -30 -34 -12 -17 17 -17 18 1 21 23 4 23 19 -2 60 -14
22 -27 32 -44 32 -28 0 -45 18 -27 29 8 5 7 13 -4 27 -15 19 -15 19 -8 0 5
-15 3 -18 -9 -14 -8 4 -21 2 -29 -2 -9 -6 -21 -2 -36 12 -30 28 -29 36 2 30
15 -2 25 0 25 8 0 7 -8 9 -20 5 -41 -13 -33 61 10 100 17 15 20 15 46 -2 16
-10 25 -12 21 -5 -5 8 -2 12 8 12 9 0 13 -4 10 -10 -3 -5 1 -10 9 -10 9 0 16
5 16 11 0 5 5 7 10 4 14 -8 52 4 45 15 -9 14 18 17 43 4 14 -7 39 -34 58 -59z
m-1331 56 c33 -5 96 -12 140 -15 228 -17 271 -28 326 -87 22 -23 42 -52 45
-64 3 -12 19 -32 35 -44 22 -17 29 -30 29 -56 0 -18 5 -37 10 -40 6 -3 10 -15
10 -26 0 -10 4 -19 8 -19 5 0 18 -9 30 -20 12 -12 22 -16 22 -10 0 5 6 9 13 8
14 -3 19 65 6 97 -5 14 -8 4 -8 -32 -1 -54 -5 -60 -31 -43 -13 9 -13 12 3 21
23 14 22 26 -7 52 -18 17 -22 27 -15 38 8 12 11 11 23 -3 12 -16 14 -16 36 7
18 19 32 24 66 23 24 -1 44 -5 44 -9 0 -3 11 -11 25 -17 16 -8 23 -17 19 -27
-7 -16 24 -47 38 -39 5 3 8 0 8 -6 0 -7 6 -10 13 -7 17 6 47 -11 47 -28 0 -7
9 -17 20 -20 11 -3 20 -12 20 -19 0 -13 -152 -30 -275 -30 -27 0 -52 -4 -55
-7 -3 -4 -58 -17 -123 -29 l-118 -21 -122 62 c-67 34 -144 77 -172 95 -112 75
-168 116 -184 133 -9 10 -42 39 -73 66 -51 41 -57 51 -51 74 8 33 3 30 54 40
61 12 75 12 144 2z m817 -163 c14 -10 30 -18 34 -18 4 0 15 -7 24 -15 9 -8 50
-31 91 -52 69 -35 179 -118 179 -135 0 -5 -14 -8 -31 -8 -25 0 -46 14 -103 68
-40 37 -84 72 -97 78 -64 30 -77 38 -118 75 -44 39 -31 43 21 7z m865 -49 c16
-18 31 -28 41 -24 11 4 12 2 4 -8 -7 -8 -9 -33 -6 -63 3 -27 1 -62 -4 -79 -8
-27 -13 -30 -43 -27 -19 1 -89 6 -156 10 -68 5 -126 12 -130 15 -4 4 10 24 30
45 21 21 46 54 56 73 10 19 22 32 27 31 5 -2 8 -8 7 -13 -2 -4 4 -6 12 -3 8 4
12 10 9 15 -3 5 4 9 15 9 11 0 23 5 26 11 4 6 14 8 23 4 9 -3 13 -3 10 1 -10
9 14 33 35 34 10 0 30 -14 44 -31z m-483 -38 c3 -5 0 -11 -7 -14 -8 -3 -14 1
-14 9 0 16 13 19 21 5z m572 -46 c3 -8 -1 -24 -10 -37 -9 -12 -16 -18 -16 -12
0 5 6 16 13 23 10 11 9 13 -5 8 -12 -4 -16 -1 -15 14 1 22 25 26 33 4z m-555
-218 c51 -13 66 -30 32 -35 -13 -2 -23 -7 -23 -12 0 -5 -3 -15 -6 -24 -5 -12
1 -16 23 -16 16 0 33 4 39 9 5 5 19 12 32 16 20 6 22 3 22 -29 0 -19 -7 -42
-16 -51 -23 -23 -57 -15 -64 15 -3 14 -14 26 -23 28 -17 4 -21 -2 -31 -50 -7
-32 -42 -56 -58 -40 -7 7 -4 22 11 48 18 29 19 39 9 45 -10 7 -9 9 3 9 16 0
57 50 42 50 -5 0 -25 4 -46 9 -52 12 -77 -11 -77 -71 -1 -35 -3 -40 -11 -25
-20 34 23 112 71 130 21 7 19 8 71 -6z m398 -29 c6 -18 9 -19 14 -5 4 10 16
17 28 17 16 0 19 -4 14 -17 -36 -88 -46 -126 -33 -134 9 -6 9 -9 1 -9 -41 0
-54 30 -32 72 6 11 8 22 6 25 -3 2 -13 -14 -23 -36 -20 -45 -50 -67 -40 -29
18 70 18 73 -8 32 -26 -42 -50 -59 -67 -48 -5 3 -9 10 -9 16 0 7 5 6 14 -1 17
-14 19 -11 54 64 13 27 28 55 34 62 16 20 38 16 47 -9z m-809 -13 c0 -19 -20
-29 -32 -17 -8 8 -7 16 2 26 14 17 30 12 30 -9z m-275 -9 c-31 -13 -64 -53
-77 -91 -5 -17 -6 -16 -7 6 -2 44 52 97 99 98 8 0 1 -6 -15 -13z m87 -3 c10
-9 18 -25 18 -35 0 -45 -53 -108 -90 -108 -12 1 -12 3 3 11 25 15 47 63 47
104 0 54 -21 39 -39 -28 -14 -51 -46 -105 -56 -95 -8 8 29 114 49 140 25 31
42 34 68 11z m1277 -24 c-21 -22 -28 -38 -23 -52 4 -14 3 -17 -6 -12 -8 5 -11
0 -8 -16 1 -13 14 -29 28 -36 19 -10 21 -13 7 -13 -25 0 -67 45 -67 72 0 23
24 66 44 80 6 4 21 8 33 8 20 0 19 -2 -8 -31z m-1003 -21 c-4 -18 -7 -41 -7
-51 0 -12 -6 -17 -17 -15 -12 3 -16 12 -15 31 2 36 -5 34 -18 -3 -19 -54 -44
-34 -28 23 9 33 39 53 39 26 0 -6 7 -3 16 5 25 26 37 19 30 -16z m114 18 c0
-8 -5 -27 -10 -41 -9 -23 -8 -26 6 -21 8 3 2 -8 -14 -24 -17 -17 -38 -30 -46
-30 -19 0 -21 11 -4 28 9 9 8 12 -7 13 -11 1 -24 1 -30 -1 -5 -1 -4 4 3 11 6
7 12 20 12 28 0 8 7 23 17 33 20 22 73 25 73 4z m430 4 c0 -5 -11 -18 -25 -31
-13 -13 -25 -30 -25 -36 0 -20 -28 -15 -33 5 -2 9 2 29 10 44 10 20 20 26 43
26 16 -1 30 -4 30 -8z m520 -20 c0 -32 -30 -70 -56 -70 -12 0 -8 9 15 35 17
20 31 42 31 50 0 8 2 15 5 15 3 0 5 -13 5 -30z m-1174 -25 c-8 -32 -15 -45
-28 -45 -21 0 -22 8 -7 47 9 25 25 42 40 43 3 0 1 -20 -5 -45z m-106 9 c-12
-32 -13 -57 -1 -50 5 3 12 22 15 41 5 22 13 35 23 35 12 0 14 -6 8 -27 -4 -16
-8 -35 -9 -43 -4 -30 -27 -60 -46 -60 -25 0 -26 16 -2 29 15 9 15 10 -4 11
-11 0 -23 3 -26 6 -9 8 10 66 24 76 23 14 28 9 18 -18z m1026 -15 c-7 -46 8
-46 17 1 5 20 12 30 25 30 17 0 18 -4 7 -45 -13 -53 -36 -80 -60 -71 -14 5
-15 9 -6 20 10 11 8 16 -8 21 -16 5 -18 11 -11 35 11 38 19 50 32 50 7 0 8
-14 4 -41z m194 16 c-7 -9 -15 -13 -17 -11 -7 7 7 26 19 26 6 0 6 -6 -2 -15z
m136 -46 c0 -20 -6 -39 -15 -46 -19 -14 -61 -17 -61 -4 0 5 -10 7 -22 5 l-23
-5 23 10 c14 7 22 19 22 35 0 17 8 27 28 34 39 15 47 10 48 -29z m-1661 -16
c-8 -56 -9 -57 -31 -49 -12 4 -15 14 -11 34 4 19 1 17 -10 -11 -19 -44 -38
-44 -38 1 0 42 19 69 39 53 11 -9 15 -8 20 4 3 8 13 15 22 15 14 0 15 -7 9
-47z m-308 -20 c-2 -43 -7 -62 -25 -79 -49 -50 -102 -60 -102 -19 0 26 25 45
58 45 14 0 25 12 35 38 8 20 14 38 13 39 -6 7 -80 -18 -87 -29 -5 -7 -9 -8 -9
-2 0 12 38 49 60 57 8 3 25 6 37 6 20 1 22 -3 20 -56z m208 18 c-5 -43 -22
-70 -43 -68 -17 1 -17 4 -5 27 7 14 13 30 13 36 0 12 20 34 32 34 4 0 5 -13 3
-29z m1819 2 c-4 -15 -7 -33 -7 -40 0 -17 -26 -17 -33 0 -8 21 14 67 31 67 12
0 14 -6 9 -27z m53 -23 c-11 -39 -29 -51 -42 -29 -11 17 16 69 35 69 15 0 16
-5 7 -40z m190 13 c-1 -16 -8 -33 -16 -39 -9 -7 -12 -21 -9 -38 5 -22 3 -26
-11 -20 -9 4 -29 9 -46 12 -35 6 -46 19 -40 47 4 17 3 16 -6 -2 -11 -22 -49
-33 -49 -14 0 24 24 71 36 71 8 0 14 -4 14 -9 0 -4 11 -6 25 -3 20 3 25 0 25
-17 0 -12 -5 -31 -10 -42 -8 -15 -7 -19 4 -19 8 0 18 10 22 23 5 12 9 24 10
27 1 3 5 15 9 28 11 33 44 29 42 -5z m-2130 -27 c-9 -40 -14 -45 -45 -51 -41
-8 -46 -4 -38 30 9 35 41 65 70 65 22 0 23 -2 13 -44z m2203 -15 c0 -16 -59
-73 -69 -67 -10 6 -6 46 6 68 4 8 63 7 63 -1z m46 -25 c-3 -13 -9 -31 -12 -40
-3 -9 -1 -16 5 -16 6 0 14 14 18 30 4 21 11 30 25 30 13 0 18 -5 15 -14 -3 -8
-11 -33 -17 -56 -9 -34 -15 -41 -32 -38 -27 4 -35 25 -11 31 15 4 14 5 -4 6
-32 2 -43 28 -26 62 18 36 48 40 39 5z m-796 -40 c221 -36 415 -78 543 -119
72 -24 132 -46 132 -51 0 -11 -246 -136 -325 -165 -258 -94 -368 -121 -615
-156 -316 -45 -771 -1 -1070 105 -231 81 -387 151 -389 174 -1 5 10 13 24 17
14 4 84 26 155 48 273 84 442 118 825 165 19 2 166 3 325 1 212 -2 318 -7 395
-19z"/>
<path d="M2384 4753 c-12 -2 -32 -16 -45 -31 -15 -17 -17 -21 -5 -12 13 11 45
15 103 15 63 0 80 -2 69 -11 -8 -6 -28 -35 -43 -65 -16 -30 -43 -63 -62 -76
l-34 -23 34 6 c32 6 54 17 90 46 9 7 25 41 36 75 l21 61 -62 11 c-35 6 -67 10
-72 10 -5 -1 -19 -4 -30 -6z"/>
<path d="M2034 4700 c-15 -6 -26 -29 -43 -95 -15 -55 -20 -90 -14 -96 21 -21
40 5 62 84 12 45 25 90 28 100 6 19 -1 20 -33 7z"/>
<path d="M2803 4664 c-13 -14 -23 -29 -23 -34 0 -5 -8 -22 -17 -39 -16 -28
-16 -33 -3 -41 25 -16 34 -12 49 22 8 17 21 39 30 48 9 9 17 21 18 26 1 5 5
17 8 27 11 28 -36 21 -62 -9z"/>
<path d="M2567 4640 c-10 -16 -26 -30 -35 -31 -10 0 -12 -3 -4 -6 6 -2 12 -13
12 -24 0 -14 7 -19 25 -19 14 0 25 6 25 13 0 7 9 30 20 52 25 48 25 45 -3 45
-15 0 -29 -11 -40 -30z"/>
<path d="M2666 4629 c-30 -45 -31 -73 -1 -76 28 -4 77 93 54 108 -22 14 -24
12 -53 -32z"/>
<path d="M2091 4588 c-9 -40 -9 -53 0 -59 22 -13 34 1 46 49 12 53 10 62 -16
62 -13 0 -21 -13 -30 -52z"/>
<path d="M2330 4627 c-14 -7 -27 -21 -29 -32 -3 -18 -1 -18 16 3 10 13 34 27
53 32 28 6 30 8 10 9 -14 0 -36 -5 -50 -12z"/>
<path d="M2069 4603 c-13 -16 -12 -17 4 -4 9 7 17 15 17 17 0 8 -8 3 -21 -13z"/>
<path d="M2898 4591 c-27 -25 -31 -33 -22 -48 13 -22 57 -31 49 -11 -4 10 6
17 31 24 20 5 42 17 48 26 18 29 0 31 -29 3 -33 -34 -47 -24 -15 10 l23 25
-26 0 c-15 0 -40 -12 -59 -29z"/>
<path d="M1890 4580 c-13 -8 -44 -158 -35 -168 2 -2 12 1 23 7 23 12 33 33 38
81 3 19 6 47 9 63 5 28 -7 35 -35 17z"/>
<path d="M3041 4554 c-34 -39 -36 -58 -5 -61 12 -2 31 13 52 39 31 38 32 43
15 49 -28 12 -29 11 -62 -27z"/>
<path d="M1800 4542 c-32 -33 -39 -72 -15 -92 18 -15 60 -3 46 13 -5 7 -6 30
-1 57 5 25 7 47 5 49 -2 2 -18 -10 -35 -27z"/>
<path d="M3116 4551 c-11 -12 -14 -21 -7 -26 6 -3 11 -2 11 4 0 6 11 13 25 17
14 3 25 10 25 15 0 16 -37 9 -54 -10z"/>
<path d="M3183 4511 c-37 -30 -42 -55 -15 -66 12 -5 27 5 54 36 20 24 35 46
32 51 -10 15 -39 7 -71 -21z"/>
<path d="M1670 4464 c0 -52 1 -55 23 -52 12 2 21 6 20 11 -2 4 -3 27 -3 52 0
38 -3 45 -20 45 -18 0 -20 -7 -20 -56z"/>
<path d="M3276 4474 c-38 -35 -39 -37 -21 -50 26 -19 27 -19 64 20 21 22 31
41 28 50 -10 25 -29 19 -71 -20z"/>
<path d="M1464 4485 c-10 -24 12 -42 34 -29 24 16 21 38 -6 42 -13 2 -25 -3
-28 -13z"/>
<path d="M1598 4473 c-23 -25 -25 -113 -3 -113 23 0 33 31 26 84 -6 47 -7 48
-23 29z"/>
<path d="M1363 4426 c13 -27 27 -25 27 5 0 12 -7 19 -19 19 -17 0 -18 -3 -8
-24z"/>
<path d="M3393 4435 c-41 -17 -46 -56 -10 -72 20 -10 23 -8 23 10 -1 14 11 28
37 43 30 17 35 23 22 28 -23 9 -35 7 -72 -9z"/>
<path d="M1488 4423 c-14 -3 -18 -15 -18 -53 0 -54 9 -65 47 -55 19 4 23 9 14
18 -6 6 -11 30 -11 54 0 24 -3 42 -7 42 -5 -1 -16 -3 -25 -6z"/>
<path d="M1301 4398 c-12 -32 3 -54 49 -78 40 -20 44 -27 40 -64 -2 -25 16
-12 36 25 14 27 14 33 0 54 -8 13 -31 28 -50 35 -19 6 -38 20 -41 31 -8 26
-24 24 -34 -3z"/>
<path d="M3472 4390 c-37 -30 -41 -55 -12 -70 16 -8 20 -8 20 4 0 8 18 28 40
44 l41 30 -28 10 c-24 8 -33 5 -61 -18z"/>
<path d="M3630 4373 c-14 -9 -27 -20 -30 -23 -3 -3 -20 -16 -38 -29 -33 -23
-34 -24 -14 -43 19 -19 19 -19 53 11 21 20 40 29 51 25 12 -4 16 -1 13 8 -4 9
5 20 20 28 l26 14 -23 13 c-30 16 -29 16 -58 -4z"/>
<path d="M3764 4315 c-8 -20 4 -35 26 -35 26 0 33 16 14 34 -19 20 -33 20 -40
1z"/>
<path d="M1301 4266 c-30 -32 -24 -60 14 -64 25 -3 27 -2 16 12 -8 10 -11 28
-7 46 7 36 6 37 -23 6z"/>
<path d="M3673 4265 c-28 -17 -40 -30 -36 -41 7 -18 43 -39 43 -24 0 5 19 22
42 36 39 25 41 27 23 40 -24 18 -23 18 -72 -11z"/>
<path d="M3758 4199 c-19 -11 -24 -54 -8 -64 6 -3 13 1 16 9 3 9 24 21 45 27
42 13 49 23 23 33 -23 9 -57 7 -76 -5z"/>
<path d="M1106 4172 c-7 -12 13 -84 28 -99 9 -10 16 -10 35 3 20 14 21 18 8
25 -8 5 -18 25 -21 44 -5 25 -12 35 -26 35 -10 0 -21 -4 -24 -8z"/>
<path d="M3871 4158 c-9 -15 -15 -18 -21 -9 -5 9 -9 6 -13 -8 -3 -13 -13 -21
-27 -21 -11 0 -18 -4 -15 -10 17 -27 105 11 105 45 0 23 -15 25 -29 3z"/>
<path d="M1033 4109 c-12 -12 10 -94 29 -105 21 -13 28 13 17 64 -10 51 -24
63 -46 41z"/>
<path d="M3907 4073 c-25 -10 -37 -21 -35 -32 5 -21 61 -17 107 8 24 13 24 14
6 27 -23 17 -30 17 -78 -3z"/>
<path d="M959 4037 c-7 -16 -6 -33 3 -61 14 -41 25 -51 45 -38 10 6 9 20 -4
65 -17 62 -28 70 -44 34z"/>
<path d="M3993 4010 c-43 -19 -53 -36 -33 -56 8 -8 26 -3 60 13 44 21 49 26
40 43 -13 24 -15 24 -67 0z"/>
<path d="M882 3945 c-10 -22 -9 -33 8 -65 22 -44 31 -48 54 -24 14 13 14 17 2
30 -8 8 -20 30 -27 49 -15 42 -22 43 -37 10z"/>
<path d="M4032 3907 c-9 -10 -7 -19 4 -36 14 -20 17 -21 28 -6 6 9 31 19 55
22 40 5 42 7 26 20 -24 17 -99 17 -113 0z"/>
<path d="M827 3896 c-9 -22 -9 -79 -1 -100 9 -22 47 -20 69 4 15 17 16 20 3
15 -18 -7 -26 3 -49 59 -12 30 -17 35 -22 22z"/>
<path d="M4133 3851 c-27 -10 -43 -22 -43 -32 0 -19 26 -45 32 -31 1 6 25 16
51 23 l49 14 -24 21 c-22 19 -25 20 -65 5z"/>
<path d="M635 3767 c-5 -16 3 -39 24 -73 17 -27 36 -61 42 -76 12 -31 30 -36
49 -13 11 13 9 19 -7 38 -12 12 -35 50 -52 85 -33 66 -47 76 -56 39z"/>
<path d="M735 3780 c-9 -15 37 -94 58 -98 29 -6 30 24 3 67 -26 40 -48 51 -61
31z"/>
<path d="M4229 3766 c-75 -17 -81 -21 -67 -51 7 -16 15 -22 22 -16 6 4 50 16
99 26 48 10 87 21 87 25 0 3 -5 11 -12 18 -15 15 -55 14 -129 -2z"/>
<path d="M565 3660 c-7 -23 24 -82 75 -140 28 -32 31 -33 46 -18 15 15 12 22
-41 92 -66 89 -71 93 -80 66z"/>
<path d="M4334 3586 c-17 -8 -34 -22 -38 -31 -5 -14 -4 -15 7 -7 7 6 33 20 57
31 27 12 37 20 25 20 -11 0 -34 -6 -51 -13z"/>
<path d="M4425 3578 c32 -17 53 -49 70 -103 29 -92 67 -165 87 -165 18 0 12
19 -55 174 -21 47 -83 106 -111 106 -6 0 -2 -6 9 -12z"/>
<path d="M573 3484 c3 -28 13 -54 26 -67 l21 -21 22 21 21 22 -31 26 c-17 14
-34 35 -37 45 -12 39 -28 21 -22 -26z"/>
<path d="M446 3449 c-5 -27 0 -38 50 -95 58 -66 73 -74 93 -50 9 11 7 19 -11
38 -13 13 -46 49 -74 81 l-51 58 -7 -32z"/>
<path d="M4410 3447 c0 -5 4 -17 10 -27 8 -16 4 -18 -46 -25 -36 -4 -60 -3
-67 4 -8 8 1 11 34 12 34 0 39 2 24 9 -11 5 -33 9 -48 9 -39 1 -33 -26 12 -56
24 -16 48 -23 83 -23 47 0 50 -2 64 -35 8 -19 19 -35 24 -35 11 0 3 25 -18 57
-13 21 -12 23 12 29 21 5 24 9 15 20 -6 8 -22 14 -34 14 -14 0 -32 11 -44 28
-11 15 -21 23 -21 19z"/>
<path d="M395 3324 c-8 -13 -4 -24 20 -48 16 -18 43 -51 58 -74 17 -26 36 -42
48 -42 38 0 31 28 -25 96 -31 37 -56 72 -56 76 0 15 -35 8 -45 -8z"/>
<path d="M531 3273 c7 -12 15 -20 18 -17 3 2 -3 12 -13 22 -17 16 -18 16 -5
-5z"/>
<path d="M371 3220 c-2 -86 49 -150 96 -120 13 8 14 10 3 9 -8 -1 -20 -1 -26
0 -21 2 -57 65 -64 115 l-8 51 -1 -55z"/>
<path d="M4446 3247 c-12 -9 -16 -20 -12 -33 5 -16 16 -19 67 -20 l62 0 -37
33 c-39 36 -53 40 -80 20z"/>
<path d="M4520 3165 c-13 -16 -40 -20 -56 -7 -5 4 2 -3 16 -15 14 -13 33 -23
43 -23 28 0 57 19 57 37 0 13 -3 14 -12 5 -7 -7 -21 -12 -32 -12 -21 1 -21 1
-2 15 11 8 15 15 9 15 -6 0 -16 -7 -23 -15z"/>
<path d="M4494 3056 c-4 -10 -3 -21 2 -25 12 -11 114 -22 114 -12 0 20 -29 41
-67 47 -35 5 -44 3 -49 -10z"/>
<path d="M290 2973 c0 -24 8 -36 38 -57 21 -14 42 -26 46 -26 4 0 21 -10 38
-21 31 -23 41 -19 53 20 5 17 4 21 -5 16 -6 -4 -34 8 -63 27 -29 19 -64 43
-79 52 l-28 18 0 -29z"/>
<path d="M4515 2972 c-3 -3 -5 -15 -5 -27 0 -20 7 -23 56 -29 31 -4 58 -5 60
-3 2 1 1 12 -2 24 -4 15 -18 23 -55 30 -27 6 -51 8 -54 5z"/>
<path d="M4537 2863 c-22 -21 0 -52 43 -58 8 -1 27 -6 42 -10 27 -7 27 -6 17
23 -7 20 -19 32 -37 37 -15 3 -34 8 -43 11 -8 2 -18 1 -22 -3z"/>
<path d="M345 2838 c12 -40 34 -67 60 -74 30 -8 45 1 45 28 0 12 -3 19 -6 15
-8 -8 -56 17 -73 37 -19 23 -33 19 -26 -6z"/>
<path d="M4557 2763 c-11 -10 -8 -55 3 -48 5 3 26 -1 46 -10 40 -17 54 -13 54
15 0 13 -14 23 -47 34 -54 19 -48 18 -56 9z"/>
<path d="M330 2731 c0 -5 8 -12 18 -15 18 -6 48 -46 34 -46 -4 0 -18 7 -30 16
-13 9 -26 14 -29 11 -11 -12 24 -61 57 -79 33 -17 36 -17 48 -1 18 26 15 52
-6 46 -13 -3 -22 6 -36 36 -12 28 -24 41 -37 41 -10 0 -19 -4 -19 -9z"/>
<path d="M4567 2644 c-13 -13 -8 -54 6 -48 18 6 59 -10 82 -33 18 -17 18 -17
11 12 -4 17 -15 38 -24 47 -20 19 -64 32 -75 22z"/>
<path d="M327 2583 c-4 -3 8 -19 25 -34 33 -28 25 -39 -13 -19 -13 8 -19 7
-19 0 0 -24 23 -52 53 -65 37 -16 57 -5 57 30 0 18 -4 22 -20 18 -12 -3 -20 0
-20 7 0 15 -39 70 -49 70 -4 0 -11 -3 -14 -7z"/>
<path d="M4566 2544 c-10 -27 -7 -40 12 -41 9 -1 52 -18 95 -38 44 -20 80 -35
82 -33 2 2 1 15 -2 30 -4 21 -15 31 -52 44 -43 15 -107 42 -122 50 -4 2 -10
-3 -13 -12z"/>
<path d="M4571 2427 c-18 -18 -13 -46 7 -40 11 2 32 -7 50 -22 26 -22 32 -24
32 -10 0 24 -36 72 -59 78 -11 2 -24 0 -30 -6z"/>
<path d="M320 2392 c0 -19 84 -57 101 -46 23 14 7 40 -31 52 -54 16 -70 15
-70 -6z"/>
<path d="M244 2328 c3 -13 6 -26 6 -30 0 -4 30 -17 68 -29 132 -41 122 -40
122 -15 0 18 -11 26 -62 43 -35 11 -80 28 -102 38 l-39 16 7 -23z"/>
<path d="M355 2330 c10 -11 20 -20 23 -20 3 0 -3 9 -13 20 -10 11 -20 20 -23
20 -3 0 3 -9 13 -20z"/>
<path d="M4556 2334 c-11 -28 -7 -54 8 -48 7 3 29 -4 47 -15 44 -27 48 -26 46
6 -2 21 -12 33 -44 50 -50 27 -49 27 -57 7z"/>
<path d="M4551 2227 c-14 -14 -14 -47 0 -47 7 0 40 -18 75 -40 l64 -40 0 28
c0 20 -7 33 -25 42 -14 7 -25 20 -25 27 0 8 -4 12 -8 9 -5 -3 -22 3 -39 14
-23 13 -34 15 -42 7z"/>
<path d="M344 2178 c3 -13 6 -26 6 -29 0 -4 21 -10 46 -14 33 -5 49 -3 54 6 8
12 1 44 -7 35 -3 -2 -26 2 -51 10 -26 7 -49 14 -51 14 -2 0 -1 -10 3 -22z"/>
<path d="M350 2117 c0 -22 27 -58 55 -73 42 -23 65 -13 65 27 0 25 -3 29 -14
20 -14 -11 -67 1 -93 22 -7 5 -13 7 -13 4z"/>
<path d="M4533 2107 c-20 -25 -23 -47 -7 -47 8 0 30 -11 48 -25 41 -32 46 -31
46 3 0 34 -71 90 -87 69z"/>
<path d="M4651 2021 c-15 -10 -11 -43 6 -48 6 -2 16 5 22 15 13 24 -7 46 -28
33z"/>
<path d="M4500 1981 c-13 -25 -13 -34 0 -26 5 3 27 -11 50 -31 36 -33 40 -34
40 -15 0 30 -26 77 -45 85 -26 10 -34 7 -45 -13z"/>
<path d="M385 1971 c-11 -19 8 -39 43 -45 65 -10 72 -8 72 22 0 26 -2 27 -55
29 -30 1 -57 -2 -60 -6z"/>
<path d="M4493 1890 c17 -44 62 -70 84 -47 13 13 11 15 -13 21 -22 6 -25 9
-13 17 10 8 8 8 -10 3 -18 -5 -29 -1 -43 17 l-19 24 14 -35z"/>
<path d="M320 1883 c0 -24 31 -42 90 -53 102 -19 138 -12 125 22 -5 12 -27 18
-83 22 -42 4 -89 9 -104 12 -16 3 -28 2 -28 -3z"/>
<path d="M4452 1818 c-17 -17 -15 -31 8 -46 12 -7 18 -18 14 -24 -4 -6 -3 -8
3 -5 6 4 16 0 23 -8 18 -22 30 -18 30 8 0 12 -13 37 -29 55 -34 36 -33 36 -49
20z"/>
<path d="M449 1729 c-22 -28 -37 -39 -50 -36 -24 6 -24 -5 -1 -26 31 -28 59
-21 87 23 20 32 31 40 55 40 34 0 39 14 11 30 -39 20 -68 12 -102 -31z"/>
<path d="M367 1753 c-15 -14 -6 -22 23 -20 33 2 39 11 14 21 -20 8 -29 8 -37
-1z"/>
<path d="M4406 1714 c-9 -23 -7 -36 3 -29 5 3 19 -8 31 -25 22 -31 55 -40 63
-17 6 18 -51 87 -73 87 -10 0 -21 -7 -24 -16z"/>
<path d="M520 1663 c0 -5 11 -20 24 -33 31 -28 56 -21 56 17 -1 24 -2 25 -11
11 -13 -22 -27 -23 -51 -1 -10 9 -18 12 -18 6z"/>
<path d="M2085 4120 c-3 -5 -1 -10 4 -10 6 0 11 5 11 10 0 6 -2 10 -4 10 -3 0
-8 -4 -11 -10z"/>
<path d="M1780 4056 c0 -2 14 -6 30 -8 17 -3 30 -1 30 4 0 4 -13 8 -30 8 -16
0 -30 -2 -30 -4z"/>
<path d="M2070 4046 c0 -9 7 -16 16 -16 9 0 14 5 12 12 -6 18 -28 21 -28 4z"/>
<path d="M1606 4035 c-3 -8 -1 -15 4 -15 6 0 10 7 10 15 0 8 -2 15 -4 15 -2 0
-6 -7 -10 -15z"/>
<path d="M1760 4030 c0 -5 4 -10 9 -10 6 0 13 5 16 10 3 6 -1 10 -9 10 -9 0
-16 -4 -16 -10z"/>
<path d="M2091 4021 c-9 -6 -10 -11 -2 -15 13 -8 31 1 31 15 0 11 -11 11 -29
0z"/>
<path d="M2087 3940 c-4 -17 0 -20 24 -20 22 0 29 5 29 20 0 14 -7 20 -24 20
-15 0 -26 -7 -29 -20z"/>
<path d="M3050 3603 c8 -3 18 -11 22 -17 4 -6 38 -12 75 -12 l68 -2 -45 18
c-25 11 -65 19 -90 19 -25 0 -38 -3 -30 -6z m73 -10 c-7 -2 -21 -2 -30 0 -10
3 -4 5 12 5 17 0 24 -2 18 -5z"/>
<path d="M2970 3591 c0 -5 7 -12 16 -15 22 -8 26 -8 20 3 -4 5 0 12 6 14 7 3
1 6 -14 6 -16 1 -28 -3 -28 -8z"/>
<path d="M3330 3446 c0 -2 7 -7 16 -10 8 -3 12 -2 9 4 -6 10 -25 14 -25 6z"/>
<path d="M2705 3379 c-16 -6 -54 -17 -84 -25 -58 -16 -151 -64 -151 -78 0 -5
6 -4 13 2 15 12 147 39 237 47 50 5 75 3 108 -10 24 -10 45 -15 48 -12 10 10
-97 87 -119 86 -12 0 -35 -5 -52 -10z"/>
<path d="M1465 3360 c-3 -5 1 -10 10 -10 9 0 13 5 10 10 -3 6 -8 10 -10 10 -2
0 -7 -4 -10 -10z"/>
<path d="M1416 3306 c3 -7 16 -13 30 -13 27 0 32 12 8 21 -26 10 -44 7 -38 -8z"/>
<path d="M1345 3260 c-19 -8 -19 -9 3 -9 12 -1 22 4 22 9 0 6 -1 10 -2 9 -2 0
-12 -4 -23 -9z"/>
<path d="M2418 3263 c7 -3 16 -2 19 1 4 3 -2 6 -13 5 -11 0 -14 -3 -6 -6z"/>
<path d="M2355 3240 c-8 -13 5 -13 25 0 13 8 13 10 -2 10 -9 0 -20 -4 -23 -10z"/>
<path d="M1435 3150 c-3 -5 1 -10 10 -10 9 0 13 5 10 10 -3 6 -8 10 -10 10 -2
0 -7 -4 -10 -10z"/>
<path d="M2090 3120 c-14 -11 -21 -20 -17 -20 11 0 67 29 67 35 0 11 -27 3
-50 -15z"/>
<path d="M1400 3090 c-13 -8 -12 -10 3 -10 9 0 17 5 17 10 0 12 -1 12 -20 0z"/>
<path d="M1380 3055 c0 -8 2 -15 4 -15 2 0 6 7 10 15 3 8 1 15 -4 15 -6 0 -10
-7 -10 -15z"/>
<path d="M1353 3023 c-7 -2 -13 -15 -13 -28 0 -16 -10 -27 -32 -38 l-33 -16
29 -11 c44 -16 67 -5 59 31 -3 16 -1 29 4 29 5 0 9 9 10 20 2 20 -2 22 -24 13z"/>
<path d="M2760 2996 c-49 -8 -76 -20 -107 -45 -23 -19 -40 -38 -37 -42 3 -5 0
-9 -5 -9 -16 0 -13 -16 5 -34 8 -9 12 -21 9 -26 -12 -19 16 -40 51 -40 19 0
34 -4 34 -10 0 -5 -4 -10 -10 -10 -5 0 -10 -7 -10 -15 0 -10 10 -15 30 -15 19
0 30 5 30 14 0 23 46 28 79 8 22 -13 28 -21 20 -29 -16 -16 66 -27 142 -20 60
5 150 42 157 64 5 18 -78 91 -122 107 l-41 14 34 1 c32 1 114 -19 170 -41 31
-12 -72 87 -113 109 -45 24 -224 34 -316 19z m208 -93 c-10 -2 -26 -2 -35 0
-10 3 -2 5 17 5 19 0 27 -2 18 -5z m52 -55 c10 -6 1 -7 -25 -2 -22 4 -50 7
-62 7 -13 -1 -23 3 -23 9 0 11 87 0 110 -14z m-175 -3 c-22 -8 -51 -13 -65
-13 -24 0 -24 0 5 13 17 8 46 14 65 14 l35 -1 -40 -13z m187 -56 c21 -11 21
-12 -3 -25 -13 -7 -37 -13 -54 -13 -29 0 -29 1 -7 11 12 6 22 17 22 25 0 16
14 17 42 2z"/>
<path d="M1220 2986 c0 -9 39 -13 51 -5 10 6 4 9 -18 9 -18 0 -33 -2 -33 -4z"/>
<path d="M1507 2973 c-12 -11 -8 -23 8 -23 8 0 15 7 15 15 0 16 -12 20 -23 8z"/>
<path d="M1690 2955 c-13 -14 -20 -25 -16 -25 11 0 50 39 44 45 -2 3 -15 -6
-28 -20z"/>
<path d="M1375 2900 c-3 -5 -1 -10 4 -10 6 0 11 5 11 10 0 6 -2 10 -4 10 -3 0
-8 -4 -11 -10z"/>
<path d="M3396 2786 c-3 -13 -3 -44 0 -69 9 -62 -11 -71 -35 -15 -10 24 -26
50 -36 58 -17 14 -18 12 -11 -33 4 -27 14 -67 22 -89 8 -22 14 -53 14 -67 0
-33 21 -63 36 -53 38 25 81 152 51 152 -4 0 -5 15 -1 34 6 35 -11 106 -26 106
-4 0 -11 -11 -14 -24z"/>
<path d="M3098 2723 c7 -3 16 -2 19 1 4 3 -2 6 -13 5 -11 0 -14 -3 -6 -6z"/>
<path d="M2758 2513 c7 -3 16 -2 19 1 4 3 -2 6 -13 5 -11 0 -14 -3 -6 -6z"/>
<path d="M3345 2500 c-3 -5 -1 -10 4 -10 6 0 11 5 11 10 0 6 -2 10 -4 10 -3 0
-8 -4 -11 -10z"/>
<path d="M3430 1074 c0 -8 5 -12 10 -9 6 4 8 11 5 16 -9 14 -15 11 -15 -7z"/>
<path d="M3265 1040 c-13 -6 -15 -9 -5 -9 8 0 22 4 30 9 18 12 2 12 -25 0z"/>
<path d="M1140 3716 c0 -2 7 -7 16 -10 8 -3 12 -2 9 4 -6 10 -25 14 -25 6z"/>
<path d="M1110 3690 c0 -5 9 -10 20 -10 11 0 20 5 20 10 0 6 -9 10 -20 10 -11
0 -20 -4 -20 -10z"/>
<path d="M1005 3492 c-6 -4 -11 -16 -10 -27 0 -14 -8 -21 -27 -23 -26 -3 -43
-25 -33 -42 8 -13 35 0 35 16 0 8 5 14 11 14 6 0 9 -7 5 -15 -3 -8 -1 -15 5
-15 5 0 12 7 15 15 4 8 12 15 19 15 17 0 25 33 13 54 -10 18 -18 20 -33 8z"/>
<path d="M1000 2655 c0 -9 9 -15 21 -15 18 0 19 2 9 15 -7 8 -16 15 -21 15 -5
0 -9 -7 -9 -15z"/>
<path d="M1195 2630 c3 -5 10 -10 16 -10 5 0 9 5 9 10 0 6 -7 10 -16 10 -8 0
-12 -4 -9 -10z"/>
<path d="M1028 2623 c6 -2 18 -2 25 0 6 3 1 5 -13 5 -14 0 -19 -2 -12 -5z"/>
<path d="M1038 2603 c6 -2 18 -2 25 0 6 3 1 5 -13 5 -14 0 -19 -2 -12 -5z"/>
<path d="M950 2230 c0 -11 5 -20 10 -20 6 0 10 9 10 20 0 11 -4 20 -10 20 -5
0 -10 -9 -10 -20z"/>
<path d="M1085 2240 c3 -5 10 -10 16 -10 5 0 9 5 9 10 0 6 -7 10 -16 10 -8 0
-12 -4 -9 -10z"/>
<path d="M881 2216 c-17 -20 -10 -56 12 -70 23 -14 43 10 42 51 0 32 -33 44
-54 19z"/>
<path d="M776 2101 c-8 -12 3 -41 15 -41 5 0 9 5 9 10 0 6 9 1 20 -10 11 -11
20 -24 20 -30 0 -5 7 -10 15 -10 9 0 12 6 9 15 -4 8 -2 15 4 15 15 0 23 43 9
52 -17 11 -95 10 -101 -1z"/>
<path d="M1000 2001 c0 -13 12 -20 26 -14 20 8 17 19 -6 20 -11 1 -20 -2 -20
-6z"/>
<path d="M915 1970 c10 -11 20 -18 23 -15 7 6 -18 35 -31 35 -5 0 -2 -9 8 -20z"/>
<path d="M2430 2566 c0 -9 5 -16 10 -16 6 0 10 4 10 9 0 6 -4 13 -10 16 -5 3
-10 -1 -10 -9z"/>
<path d="M1301 1719 c-11 -19 -11 -21 4 -15 9 3 19 6 21 6 2 0 4 7 4 15 0 21
-13 19 -29 -6z"/>
<path d="M1273 1674 c-7 -7 -9 -15 -5 -17 4 -3 13 1 19 9 7 7 9 15 5 17 -4 3
-13 -1 -19 -9z"/>
<path d="M1100 1570 c-16 -10 -8 -23 15 -26 9 -1 15 6 15 17 0 21 -8 23 -30 9z"/>
<path d="M1670 1490 c0 -5 5 -10 11 -10 5 0 7 5 4 10 -3 6 -8 10 -11 10 -2 0
-4 -4 -4 -10z"/>
<path d="M2499 1273 c-13 -16 -12 -17 4 -4 9 7 17 15 17 17 0 8 -8 3 -21 -13z"/>
<path d="M2440 1269 c0 -5 5 -7 10 -4 6 3 10 8 10 11 0 2 -4 4 -10 4 -5 0 -10
-5 -10 -11z"/>
<path d="M2695 719 c-4 -11 -4 -23 0 -27 7 -7 25 17 25 36 0 20 -18 14 -25 -9z"/>
<path d="M2566 685 c-9 -26 -7 -32 5 -12 6 10 9 21 6 23 -2 3 -7 -2 -11 -11z"/>
<path d="M2356 744 c-3 -9 -6 -25 -6 -37 1 -17 4 -15 15 12 18 39 18 41 6 41
-5 0 -12 -7 -15 -16z"/>
<path d="M3386 666 c-8 -32 -1 -45 16 -28 8 8 8 18 1 34 -10 22 -10 22 -17 -6z"/>
<path d="M1362 568 c-18 -18 -14 -38 8 -38 16 0 40 26 40 44 0 11 -36 6 -48
-6z"/>
<path d="M1562 621 c-7 -18 -7 -31 -2 -31 11 0 25 48 17 56 -2 3 -9 -9 -15
-25z"/>
<path d="M1762 383 c-26 -52 -19 -101 7 -55 10 16 12 16 25 0 18 -24 29 -23
21 2 -4 11 -2 20 4 20 17 0 13 37 -5 44 -27 10 -43 7 -52 -11z m48 -13 c0 -5
-9 -10 -21 -10 -11 0 -17 5 -14 10 3 6 13 10 21 10 8 0 14 -4 14 -10z"/>
<path d="M2441 377 c-16 -41 -14 -64 8 -70 35 -9 58 42 27 60 -7 4 -15 15 -18
23 -4 11 -9 7 -17 -13z m25 -54 c-11 -11 -19 6 -11 24 8 17 8 17 12 0 3 -10 2
-21 -1 -24z"/>
<path d="M2632 384 c-43 -30 -19 -91 31 -79 28 7 43 43 22 51 -21 8 -41 -6
-24 -17 17 -10 5 -23 -16 -16 -19 8 -20 43 -1 50 8 3 25 3 38 1 22 -5 22 -5 4
10 -24 20 -26 20 -54 0z"/>
<path d="M3060 384 c-16 -19 -23 -74 -10 -74 6 0 10 9 10 19 0 11 5 23 10 26
6 4 8 11 5 16 -4 5 -1 9 4 9 6 0 11 5 11 10 0 15 -16 12 -30 -6z"/>
<path d="M3285 389 c-6 -9 -19 -18 -30 -21 -15 -2 -20 -11 -20 -33 0 -25 4
-30 24 -30 20 0 27 7 33 34 5 18 8 40 6 49 -3 16 -4 16 -13 1z m-15 -49 c0
-11 -7 -20 -15 -20 -15 0 -21 21 -8 33 12 13 23 7 23 -13z"/>
<path d="M3320 390 c0 -5 5 -10 11 -10 5 0 7 5 4 10 -3 6 -8 10 -11 10 -2 0
-4 -4 -4 -10z"/>
<path d="M2101 376 c-13 -16 -11 -73 2 -68 6 2 19 82 12 82 -1 0 -8 -6 -14
-14z"/>
<path d="M2370 381 c0 -5 -10 -11 -22 -13 -16 -2 -24 -11 -26 -29 -4 -30 18
-44 41 -26 19 15 33 77 18 77 -6 0 -11 -4 -11 -9z m-10 -35 c0 -8 -4 -18 -10
-21 -5 -3 -10 3 -10 14 0 12 5 21 10 21 6 0 10 -6 10 -14z"/>
<path d="M2848 372 c-16 -7 -28 -18 -28 -25 0 -7 -7 -3 -15 7 -14 19 -15 18
-15 -12 0 -39 25 -44 42 -7 15 34 28 32 28 -5 0 -16 5 -30 11 -30 6 0 8 9 4
20 -4 12 -2 27 4 33 18 22 -2 34 -31 19z"/>
<path d="M3126 378 c-13 -41 -15 -68 -6 -68 5 0 12 12 16 28 3 15 7 33 10 40
2 6 -1 12 -7 12 -5 0 -11 -6 -13 -12z"/>
<path d="M1844 356 c-3 -8 -4 -23 -2 -32 7 -37 46 -24 50 16 2 19 -2 26 -20
28 -13 2 -24 -3 -28 -12z m33 -32 c-3 -3 -12 -4 -19 -1 -8 3 -5 6 6 6 11 1 17
-2 13 -5z"/>
<path d="M1916 363 c-3 -3 -6 -17 -6 -30 0 -17 6 -23 21 -23 11 0 17 -4 14
-10 -4 -6 -16 -8 -27 -4 -14 4 -18 2 -14 -5 13 -20 53 -13 60 12 12 45 7 63
-18 65 -13 1 -26 -1 -30 -5z m34 -23 c0 -19 -11 -26 -23 -14 -8 8 3 34 14 34
5 0 9 -9 9 -20z"/>
<path d="M1984 345 c-6 -23 0 -45 10 -34 10 12 15 59 6 59 -5 0 -12 -11 -16
-25z"/>
<path d="M2025 359 c-4 -6 1 -17 11 -25 17 -14 17 -15 2 -10 -22 7 -24 -12 -3
-20 8 -4 22 0 31 7 15 12 14 15 -5 30 -19 16 -20 18 -4 22 14 4 13 5 -4 6 -12
0 -25 -4 -28 -10z"/>
<path d="M2137 364 c-14 -14 -7 -52 10 -58 20 -8 45 20 41 44 -3 16 -39 26
-51 14z"/>
<path d="M2206 354 c-9 -24 -7 -44 4 -44 6 0 10 8 10 18 0 10 5 23 12 30 9 9
8 12 -4 12 -9 0 -19 -7 -22 -16z"/>
<path d="M2251 357 c-13 -17 -6 -43 14 -51 19 -7 47 22 43 43 -4 21 -41 26
-57 8z m36 -33 c-3 -3 -12 -4 -19 -1 -8 3 -5 6 6 6 11 1 17 -2 13 -5z"/>
<path d="M2512 340 c1 -19 -1 -41 -6 -48 -4 -7 -2 -12 6 -12 14 0 61 80 52 89
-3 3 -10 -2 -16 -12 -9 -18 -10 -18 -24 0 -13 16 -14 15 -12 -17z"/>
<path d="M2717 364 c-12 -13 -8 -52 7 -57 21 -8 49 16 44 39 -3 19 -38 31 -51
18z m33 -24 c0 -19 -11 -26 -23 -14 -8 8 3 34 14 34 5 0 9 -9 9 -20z"/>
<path d="M2971 352 c-7 -14 -7 -24 3 -37 18 -25 59 -3 54 28 -4 29 -43 35 -57
9z m37 -9 c-5 -25 -28 -28 -28 -4 0 12 6 21 16 21 9 0 14 -7 12 -17z"/>
<path d="M3156 354 c-9 -23 -7 -44 3 -44 5 0 11 10 13 22 2 12 9 23 17 26 10
3 12 -2 7 -22 -3 -14 -2 -26 3 -26 10 0 21 24 21 46 0 20 -56 18 -64 -2z"/>
<path d="M3307 343 c-3 -16 -3 -30 -1 -33 7 -7 24 23 24 43 0 27 -17 20 -23
-10z"/>
<path d="M3368 362 c11 -7 9 -11 -8 -15 -28 -7 -23 -44 5 -39 24 5 22 2 27 32
2 18 -2 25 -17 28 -15 2 -16 1 -7 -6z"/>
</g>
</svg>
